<?xml version="1.0" standalone="no"?><!DOCTYPE svg PUBLIC "-//W3C//DTD SVG 1.1//EN" "http://www.w3.org/Graphics/SVG/1.1/DTD/svg11.dtd"><svg t="1497267481458" class="icon" style="" viewBox="0 0 1045 1024" version="1.1" xmlns="http://www.w3.org/2000/svg" p-id="15971" xmlns:xlink="http://www.w3.org/1999/xlink" width="130.625" height="128"><defs><style type="text/css"></style></defs><path d="M522.039216 70.27451c243.571451 0 441.72549 198.154039 441.72549 441.72549s-198.154039 441.72549-441.72549 441.72549-441.72549-198.154039-441.72549-441.72549S278.467765 70.27451 522.039216 70.27451M522.039216 10.039216c-277.24298 0-501.960784 224.677647-501.960784 501.960784 0 277.222902 224.717804 501.960784 501.960784 501.960784 277.263059 0 501.960784-224.737882 501.960784-501.960784C1024 234.736941 799.302275 10.039216 522.039216 10.039216L522.039216 10.039216z" p-id="15972" fill="#707070"></path><path d="M784.042667 533.524078 543.282196 533.524078l0 240.479373c0 11.806118-9.577412 21.383529-21.383529 21.383529-11.806118 0-21.363451-9.59749-21.363451-21.383529L500.535216 533.524078 260.035765 533.524078c-11.806118 0-21.383529-9.577412-21.383529-21.363451 0-11.826196 9.59749-21.383529 21.383529-21.383529l240.479373 0L500.515137 249.996549c0-11.806118 9.577412-21.383529 21.363451-21.383529 11.826196 0 21.383529 9.59749 21.383529 21.383529l0 240.760471 240.760471 0c11.806118 0 21.383529 9.577412 21.383529 21.383529C805.426196 523.966745 795.848784 533.524078 784.042667 533.524078z" p-id="15973" fill="#707070"></path></svg>