<?xml version="1.0" standalone="no"?><!DOCTYPE svg PUBLIC "-//W3C//DTD SVG 1.1//EN" "http://www.w3.org/Graphics/SVG/1.1/DTD/svg11.dtd"><svg t="1497258088814" class="icon" style="" viewBox="0 0 1024 1024" version="1.1" xmlns="http://www.w3.org/2000/svg" p-id="12629" xmlns:xlink="http://www.w3.org/1999/xlink" width="128" height="128"><defs><style type="text/css"></style></defs><path d="M1.666051 741.52758c5.437849-23.228027 39.419801-39.626509 65.243957-21.861914 26.403347 18.159592 132.354424 146.613172 282.719036 153.045675 87.296205 3.735068 196.092074-180.673919 326.216713-174.911682 150.210094 6.652514 305.431318 152.11856 326.214666 174.911682 14.95255 16.398482 21.74628 41.441854 21.74628 65.590857 0 24.15105-38.004569 36.028565-65.24191 21.866007-39.417755-20.499893-130.689505-128.451534-260.972756-153.047722-107.269096-20.253276-237.128699 182.641737-347.964016 174.911682C192.875931 971.099163 69.419155 853.371878 45.163728 828.984445 11.182799 794.821367-5.520628 772.239046 1.666051 741.52758z" p-id="12630" class="" fill="#eeb173"></path><path d="M1.666051 413.570223c5.437849-23.230074 39.419801-39.628556 65.243957-21.86396 26.403347 18.161638 132.354424 146.613172 282.719036 153.047722 87.296205 3.733021 196.092074-180.673919 326.216713-174.913728 150.210094 6.652514 305.431318 152.11856 326.214666 174.913728 14.95255 16.398482 21.74628 41.439808 21.74628 65.590857 0 24.149003-38.004569 36.028565-65.24191 21.86396-39.417755-20.499893-130.689505-128.449487-260.972756-153.047722-107.269096-20.25123-237.128699 182.641737-347.964016 174.911682C192.875931 643.139759 69.419155 525.412474 45.163728 501.025041 11.182799 466.861964-5.520628 444.279642 1.666051 413.570223z" p-id="12631" class="" fill="#87c38f"></path><path d="M1.666051 85.611843c5.437849-23.230074 39.419801-39.628556 65.243957-21.86396 26.403347 18.161638 132.354424 146.615219 282.719036 153.047722C436.925249 220.528626 545.721118 36.121685 675.846781 41.883923c150.210094 6.650467 305.431318 152.11856 326.214666 174.911682 14.95255 16.398482 21.74628 41.441854 21.74628 65.590857 0 24.15105-38.004569 36.028565-65.24191 21.86396-39.417755-20.496823-130.689505-128.449487-260.972756-153.047722-107.269096-20.25123-237.128699 182.641737-347.964016 174.911682-156.754137-10.930957-280.20989-128.660288-304.46634-153.045675C11.182799 138.90563-5.520628 116.321262 1.666051 85.611843z" p-id="12632" class="" fill="#87a7d6"></path></svg>