<?xml version="1.0" standalone="no"?><!DOCTYPE svg PUBLIC "-//W3C//DTD SVG 1.1//EN" "http://www.w3.org/Graphics/SVG/1.1/DTD/svg11.dtd"><svg t="1499085088663" class="icon" style="" viewBox="0 0 1024 1024" version="1.1" xmlns="http://www.w3.org/2000/svg" p-id="2466" xmlns:xlink="http://www.w3.org/1999/xlink" width="128" height="128"><defs><style type="text/css"></style></defs><path d="M917.708 926.916c0-0.012-0.004-0.02-0.008-0.032-0.008-4.06-0.832-7.92-2.264-11.472-26.104-144.936-127.748-263.464-263.036-312.82 87.788-49.236 147.196-143.048 147.196-250.844 0-158.84-128.756-287.596-287.596-287.596-158.84 0-287.596 128.756-287.596 287.596 0 107.796 59.408 201.608 147.196 250.844-135.956 49.6-237.976 169.04-263.456 314.944-0.7 2.184-1.148 4.452-1.344 6.816-0.136 0.864-0.376 1.692-0.504 2.56l0.248 0 0 0c0 17.1 13.86 30.964 30.964 30.964 17.1 0 30.964-13.864 30.964-30.964l0 0 0.104 0c29.144-163.4 171.62-287.588 343.404-287.6 0.008 0 0.016 0 0.028 0s0.016 0 0.028 0c171.784 0.012 314.264 124.2 343.404 287.6l0.384 0c0 0.004 0 0.012 0 0.016 0 17.092 13.856 30.948 30.948 30.948s30.948-13.856 30.948-30.948C917.708 926.924 917.704 926.92 917.708 926.916L917.708 926.916zM286.06 351.752c0-124.792 101.148-225.972 225.94-225.972s225.94 101.18 225.94 225.972c0 124.776-101.12 225.912-225.888 225.936-0.016 0-0.036-0.004-0.052-0.004-0.016 0-0.036 0.004-0.052 0.004C387.18 577.66 286.06 476.524 286.06 351.752z" p-id="2467" class="" fill="#e6e6e6"></path></svg>